<svg width="25" height="25" style="color:gray" viewBox="0 0 67 20" fill="none" xmlns="http://www.w3.org/2000/svg">
<path  fill="currentColor" d="M14.0586 12.9219L14.9023 11.3281V20H14.0586V12.9219ZM15.7461 9.6875L16.5898 8.09375V20H15.7461V9.6875ZM17.4336 6.5L18.2773 4.89453V20H17.4336V6.5ZM11.7734 12.5234L11.293 11.6445L17.1055 0.59375H18.0547L11.7734 12.5234ZM10.8008 10.6836L10.3086 9.79297L15.1836 0.59375H16.1445L10.8008 10.6836ZM5.15234 11.4219L5.99609 13.0156V20H5.15234V11.4219ZM3.46484 8.21094L4.30859 9.80469V20H3.46484V8.21094ZM1.77734 5L2.62109 6.60547V20H1.77734V5ZM8.59766 14.9375H7.64844L0.933594 2.19922V20H0.0898438V0.59375H1.03906L8.59766 14.9375ZM10.5078 14.9375H9.54688L2 0.59375H2.96094L10.5078 14.9375ZM19.1211 2.19922L12.4062 14.9375H11.4453L3.91016 0.59375H4.85938L11.9375 14.0469L19.0039 0.59375H19.9648V20H19.1211V2.19922ZM37.6836 13.2383C37.6836 12.9336 37.5898 12.7305 37.4023 12.6289C37.2227 12.5273 36.957 12.4766 36.6055 12.4766H31.168V11.6328H36.6055C37.8867 11.6328 38.5273 12.168 38.5273 13.2383C38.5273 13.8398 38.3516 14.2734 38 14.5391C37.6484 14.8047 37.1836 14.9375 36.6055 14.9375H31.168V14.0938H36.6055C37.3242 14.0938 37.6836 13.8086 37.6836 13.2383ZM30.6992 20H29.8555V5.65625H36.6055C37.1367 5.65625 37.5898 5.82031 37.9648 6.14844C38.3398 6.46875 38.5273 6.87109 38.5273 7.35547C38.5273 7.99609 38.3516 8.46094 38 8.75C37.6484 9.03125 37.1836 9.17188 36.6055 9.17188H31.168V8.32812H36.6055C37.3242 8.32812 37.6836 8.00391 37.6836 7.35547C37.6836 7.08984 37.582 6.88281 37.3789 6.73438C37.1758 6.57812 36.918 6.5 36.6055 6.5H30.6992V20ZM31.168 10.0156H36.6055C37.3789 10.0156 38.0312 9.78516 38.5625 9.32422C39.1016 8.85547 39.3711 8.19922 39.3711 7.35547C39.3711 6.67578 39.0898 6.08203 38.5273 5.57422C37.9727 5.06641 37.332 4.8125 36.6055 4.8125H29.0117V20H28.168V3.96875H36.6055C37.5664 3.96875 38.4062 4.30859 39.125 4.98828C39.8516 5.66016 40.2148 6.44922 40.2148 7.35547C40.2148 8.06641 40.0469 8.6875 39.7109 9.21875C39.3828 9.75 38.9375 10.1602 38.375 10.4492C39.6016 10.8867 40.2148 11.7773 40.2148 13.1211C40.2148 14.1836 39.8633 15.0352 39.1602 15.6758C38.457 16.3086 37.6055 16.625 36.6055 16.625H31.168V15.7812H36.6055C37.3789 15.7812 38.0312 15.5508 38.5625 15.0898C39.1016 14.6211 39.3711 13.9648 39.3711 13.1211C39.3711 12.5508 39.168 12.0469 38.7617 11.6094C38.3555 11.1719 37.7578 10.918 36.9688 10.8477C36.8906 10.8555 36.7695 10.8594 36.6055 10.8594H31.168V10.0156ZM41.9023 7.35547C41.9023 8.44922 41.5156 9.4375 40.7422 10.3203C41.5156 11.1797 41.9023 12.1133 41.9023 13.1211C41.9023 14.0977 41.6562 14.9883 41.1641 15.793C40.6797 16.5898 40.0312 17.2109 39.2188 17.6562C38.4141 18.0938 37.543 18.3125 36.6055 18.3125H31.168V17.4688H36.6055C37.8242 17.4688 38.8711 17.0625 39.7461 16.25C40.6211 15.4297 41.0586 14.3867 41.0586 13.1211C41.0586 12.668 40.9414 12.168 40.707 11.6211C40.4805 11.0664 40.1641 10.6445 39.7578 10.3555C40.625 9.54297 41.0586 8.54297 41.0586 7.35547C41.0586 6.21484 40.6133 5.22656 39.7227 4.39062C38.832 3.54688 37.793 3.125 36.6055 3.125H27.3242V20H26.4805V2.28125H36.6055C37.5352 2.28125 38.4062 2.51172 39.2188 2.97266C40.0391 3.42578 40.6914 4.04688 41.1758 4.83594C41.6602 5.61719 41.9023 6.45703 41.9023 7.35547ZM41.7031 10.3672C42.3984 9.4375 42.7461 8.43359 42.7461 7.35547C42.7461 6.30078 42.4648 5.32031 41.9023 4.41406C41.3477 3.5 40.5977 2.77734 39.6523 2.24609C38.707 1.70703 37.6914 1.4375 36.6055 1.4375H25.6367V20H24.793V0.59375H36.6055C37.8398 0.59375 38.9922 0.898438 40.0625 1.50781C41.1406 2.11719 41.9961 2.94531 42.6289 3.99219C43.2695 5.03125 43.5898 6.15234 43.5898 7.35547C43.5898 8.50391 43.2656 9.51172 42.6172 10.3789C43.2656 11.2773 43.5898 12.1914 43.5898 13.1211C43.5898 14.168 43.4023 15.1289 43.0273 16.0039C42.6523 16.8711 42.1445 17.5938 41.5039 18.1719C40.8711 18.75 40.1328 19.1992 39.2891 19.5195C38.4453 19.8398 37.5508 20 36.6055 20H31.168V19.1562H36.6055C37.4258 19.1562 38.2109 19.0039 38.9609 18.6992C39.7109 18.3867 40.3633 17.9648 40.918 17.4336C41.4727 16.9023 41.9141 16.2617 42.2422 15.5117C42.5781 14.7617 42.7461 13.9648 42.7461 13.1211C42.7461 12.7461 42.6562 12.2969 42.4766 11.7734C42.3047 11.2422 42.0469 10.7734 41.7031 10.3672ZM54.4648 10.3438H59.5508C60.3242 10.3438 60.9766 10.0938 61.5078 9.59375C62.0469 9.09375 62.3164 8.38281 62.3164 7.46094C62.3164 6.78125 62.0352 6.17188 61.4727 5.63281C60.9102 5.08594 60.2695 4.8125 59.5508 4.8125H52.3086V20H51.4648V3.96875H59.5508C60.5039 3.96875 61.3438 4.32422 62.0703 5.03516C62.7969 5.73828 63.1602 6.54688 63.1602 7.46094C63.1602 8.58594 62.8086 9.48828 62.1055 10.168C61.4023 10.8477 60.5508 11.1875 59.5508 11.1875H54.4648V10.3438ZM54.4648 12.0312H59.5508C60.7695 12.0312 61.8164 11.6055 62.6914 10.7539C63.5664 9.89453 64.0039 8.79688 64.0039 7.46094C64.0039 6.3125 63.5547 5.30469 62.6562 4.4375C61.7656 3.5625 60.7305 3.125 59.5508 3.125H50.6211V20H49.7773V2.28125H59.5508C60.4805 2.28125 61.3516 2.51953 62.1641 2.99609C62.9844 3.47266 63.6367 4.11328 64.1211 4.91797C64.6055 5.71484 64.8477 6.5625 64.8477 7.46094C64.8477 9 64.3242 10.2891 63.2773 11.3281C62.2383 12.3594 60.9961 12.875 59.5508 12.875H54.4648V12.0312ZM54.4648 13.7188H59.5508C60.6445 13.7188 61.6602 13.4492 62.5977 12.9102C63.5352 12.3711 64.2852 11.6211 64.8477 10.6602C65.4102 9.69141 65.6914 8.625 65.6914 7.46094C65.6914 6.40625 65.4102 5.41797 64.8477 4.49609C64.293 3.56641 63.543 2.82422 62.5977 2.26953C61.6523 1.71484 60.6367 1.4375 59.5508 1.4375H48.9336V20H48.0898V0.59375H59.5508C60.7773 0.59375 61.9297 0.910156 63.0078 1.54297C64.0859 2.16797 64.9414 3.01172 65.5742 4.07422C66.2148 5.12891 66.5352 6.25781 66.5352 7.46094C66.5352 8.85156 66.2344 10.0742 65.6328 11.1289C65.0391 12.1836 64.2305 13.0078 63.207 13.6016L65.3867 20H64.4961L62.4102 14C62.0977 14.125 61.8594 14.2109 61.6953 14.2578L63.6523 20H62.7617L60.8516 14.457C60.7812 14.4727 60.5312 14.5 60.1016 14.5391L61.918 20H61.0273L59.2344 14.5625H58.4727L60.1836 20H59.293L57.5703 14.5625H54.4648V13.7188ZM53.9961 20H53.1523V5.65625H59.5508C60.0742 5.65625 60.5234 5.83594 60.8984 6.19531C61.2812 6.54688 61.4727 6.96875 61.4727 7.46094C61.4727 8.82031 60.832 9.5 59.5508 9.5H54.4648V8.65625H59.5508C59.8867 8.65625 60.1484 8.57031 60.3359 8.39844C60.5312 8.21875 60.6289 7.90625 60.6289 7.46094C60.6289 7.1875 60.5234 6.96094 60.3125 6.78125C60.1094 6.59375 59.8555 6.5 59.5508 6.5H53.9961V20Z"/>
</svg>
